<?xml version="1.0" standalone="no"?>
<!DOCTYPE svg PUBLIC "-//W3C//DTD SVG 20010904//EN"
 "http://www.w3.org/TR/2001/REC-SVG-20010904/DTD/svg10.dtd">
<svg version="1.0" xmlns="http://www.w3.org/2000/svg"
 width="800.000000pt" height="800.000000pt" viewBox="0 0 800.000000 800.000000"
 preserveAspectRatio="xMidYMid meet">
<metadata>
Created by potrace 1.11, written by Peter Selinger 2001-2013
</metadata>
<g transform="translate(0.000000,800.000000) scale(0.100000,-0.100000)"
fill="#000000" stroke="none">
<path d="M1583 6677 l-223 -132 0 -2677 0 -2678 2308 0 2308 0 -1 217 c0 120
1 227 3 239 4 21 6 21 324 20 176 -1 321 1 323 4 2 3 -17 28 -42 55 -24 28
-65 81 -90 119 -51 77 -143 256 -143 278 0 8 -4 18 -9 24 -16 17 -90 274 -107
374 -3 14 -9 48 -14 75 -5 28 -12 77 -15 110 -4 33 -9 71 -13 85 -4 20 -8
1165 -12 3938 l0 82 -2187 -1 -2188 0 -222 -132z m230 -2252 c2 -990 6 -1813
10 -1830 3 -16 8 -55 11 -85 24 -248 105 -504 207 -655 62 -90 176 -184 228
-186 14 -1 786 -2 1715 -3 l1689 -1 -1 -52 c0 -29 -1 -68 -1 -87 l-1 -34
-2002 1 -2003 2 0 2438 -1 2438 71 42 70 42 2 -115 c2 -63 4 -925 6 -1915z
m1117 872 l0 -422 -397 1 c-219 1 -403 2 -408 3 -7 1 -10 146 -9 419 1 229 2
418 3 420 0 1 183 2 406 2 l405 0 0 -423z m1015 -2 l0 -420 -440 0 -440 0 -3
423 -2 422 442 -2 443 -3 0 -420z m1011 3 l-1 -423 -440 0 -440 0 0 423 -1
422 442 0 442 0 -2 -422z m922 2 c0 -231 -3 -421 -6 -421 -4 -1 -181 -2 -394
-3 -309 -1 -388 1 -389 11 0 7 0 177 0 378 0 201 0 385 0 410 l1 45 394 0 394
0 0 -420z m-2950 -978 l2 -422 -407 0 -408 0 0 418 c0 229 3 419 7 422 3 3
186 5 405 5 l398 0 3 -423z m1017 0 l0 -422 -442 0 -443 0 0 423 0 422 442 0
443 0 0 -423z m1011 0 l1 -422 -441 0 -442 0 1 413 c0 226 3 417 7 422 4 7
157 10 440 10 l433 0 1 -423z m920 0 l1 -422 -393 0 c-387 0 -394 0 -395 20 0
11 0 184 0 385 0 201 0 382 0 403 l1 37 393 0 392 0 1 -423z m-2944 -972 c2
-274 0 -421 -7 -422 -5 0 -190 -2 -410 -2 l-401 -2 2 416 c1 228 2 418 3 423
0 4 183 7 406 7 l405 0 2 -420z m1013 -5 l0 -420 -440 0 -440 0 -3 423 -3 422
443 -2 442 -3 1 -420z m1011 -1 l2 -420 -439 0 c-299 0 -439 3 -440 11 -4 29
-5 821 -2 828 2 4 201 6 441 5 l437 -3 1 -421z m922 3 l0 -423 -394 0 -394 0
-1 108 c0 59 0 236 0 393 0 157 0 299 0 315 l1 30 394 0 394 0 0 -423z m-2942
-560 c4 -4 8 -19 10 -34 15 -156 36 -276 69 -400 31 -113 70 -209 121 -299 21
-38 41 -72 42 -76 2 -5 -186 -8 -418 -8 l-421 0 -22 24 c-72 78 -148 294 -172
491 -4 28 -8 57 -10 65 -2 8 -7 67 -11 130 l-6 115 406 -1 c223 0 409 -3 412
-7z m1015 4 c3 -1 6 -7 6 -13 0 -7 3 -40 7 -73 7 -60 8 -69 21 -155 24 -159
101 -389 170 -506 l44 -74 -422 0 -422 1 -46 58 c-40 51 -107 174 -130 236 -4
11 -12 34 -18 50 -11 33 -45 168 -57 230 -4 22 -8 45 -9 50 -1 6 -6 41 -10 79
-4 38 -9 80 -11 92 -3 17 1 23 18 26 19 3 842 2 859 -1z m1021 -37 c3 -21 9
-70 13 -109 4 -38 9 -73 11 -76 1 -3 6 -28 10 -55 18 -134 112 -399 174 -489
17 -24 30 -46 30 -49 0 -3 -189 -6 -419 -6 l-419 0 -42 48 c-69 79 -166 300
-195 442 -16 77 -35 196 -41 252 -3 34 -8 66 -10 70 -7 12 35 13 461 12 l420
0 7 -40z m904 33 c4 -4 8 -35 10 -69 2 -35 6 -84 9 -110 3 -27 8 -72 11 -100
3 -29 17 -107 31 -173 13 -66 26 -131 29 -144 3 -12 20 -68 38 -122 l33 -99
-325 0 -325 0 -30 33 c-67 74 -134 204 -179 346 -42 134 -88 429 -69 440 13 8
759 6 767 -2z"/>
</g>
</svg>
